<?xml version="1.0" encoding="utf-8"?>
<svg xmlns="http://www.w3.org/2000/svg" viewBox="126.841 82.487 254.663 250.92" width="254.663px" height="250.92px"><g id="object-0" transform="matrix(0.9999999999999999, 0, 0, 0.9999999999999999, -1.1368683772161603e-13, -5.684341886080802e-14)"><rect x="126.841" width="254.663" height="250.92" rx="48.989" ry="48.989" style="stroke-opacity: 0; fill: rgb(19, 42, 55); stroke: rgba(0, 0, 0, 0);" y="82.487"/><rect x="140.961" y="142.12" width="133.119" height="11.627" rx="23" ry="23" style="stroke: rgba(0, 0, 0, 0); fill: rgb(255, 255, 255); transform-box: fill-box; transform-origin: 50% 50%;" transform="matrix(0.871239, 0.490859, -0.468182, 0.884015, 59.483842, 30.694114)"/><circle style="stroke: rgba(181, 160, 160, 0); fill: rgb(255, 227, 86);" transform="matrix(1.640698, 0, 0, 1.64509, -389.53241, -132.676056)" cx="364.36" cy="169.635" r="20"/><rect x="140.961" y="142.12" width="133.119" height="11.627" rx="23" ry="23" style="stroke: rgba(0, 0, 0, 0); fill: rgb(255, 255, 255); transform-origin: 207.521px 147.933px;" transform="matrix(0.88533, -0.464964, 0.488008, 0.873227, 58.15232, 85.191127)"/><circle style="stroke: rgba(181, 160, 160, 0); fill: rgb(226, 86, 86);" transform="matrix(1.640698, 0, 0, 1.64509, -389.53241, -17.32996)" cx="364.36" cy="169.635" r="20"/><circle style="stroke: rgba(181, 160, 160, 0); fill: rgb(97, 195, 255);" transform="matrix(1.640698, 0, 0, 1.64509, -284.329315, -72.176285)" cx="364.36" cy="169.635" r="20"/></g></svg>